# xmcd
#
# Track frame offsets:
#  150
#  18818
#  39384
#  57248
#  78216
#  96807
#  113357
#  130837
#  155672
#  170151
#  194639
#  209996
#  225770
#  241624
#  262090
#  277376
#  295644
#  312258
#  332003
#
# Disc length: 4699 seconds
#
# Revision: 0
# Processed by: cddbd v1.5.1PL2 Copyright (c) Steve Scherf et al.
# Submitted via: Collectorz.com_Music_Collector 6.11
#
DISCID=0a125913
DTITLE=Southside Johnny and the Asbury Jukes - This Time It's For Real/Hearts Of Stone
DYEAR=1997
DGENRE=Rock
TTITLE0=This Time It's For Real
TTITLE1=Without Love
TTITLE2=Check Mr. Popeye
TTITLE3=First Night
TTITLE4=She Got Me Where She Wants Me
TTITLE5=Some Things Just Don't Change
TTITLE6=Little Girl So Fine
TTITLE7=I Ain't Got The Fever No More
TTITLE8=Love On The Wrong Side Of Town
TTITLE9=When You Dance
TTITLE10=Got To Be A Better Way Home
TTITLE11=This Time Baby's Gone For Good
TTITLE12=I Played The Fool
TTITLE13=Hearts Of Stone
TTITLE14=Take It Inside
TTITLE15=Talk To Me
TTITLE16=Next To You
TTITLE17=Trapped Again
TTITLE18=Light Don't Shine
EXTD=
EXTT0=
EXTT1=
EXTT2=
EXTT3=
EXTT4=
EXTT5=
EXTT6=
EXTT7=
EXTT8=
EXTT9=
EXTT10=
EXTT11=
EXTT12=
EXTT13=
EXTT14=
EXTT15=
EXTT16=
EXTT17=
EXTT18=
PLAYORDER=
